<?xml version="1.0" encoding="utf-8"?>
<!-- Generator: Adobe Illustrator 28.2.0, SVG Export Plug-In . SVG Version: 6.00 Build 0)  -->
<svg version="1.1" id="Layer_1" xmlns="http://www.w3.org/2000/svg" xmlns:xlink="http://www.w3.org/1999/xlink" x="0px" y="0px"
	 viewBox="0 0 225.6 64" style="enable-background:new 0 0 225.6 64;" xml:space="preserve">
<style type="text/css">
	.st0{stroke:#000000;stroke-miterlimit:10;}
</style>
<g>
	<path class="st0" d="M50.7,37.5c-0.5-0.2-1.1-0.4-1.6-0.7c-2.8-1.4-4.5-4.8-3.9-7.9c0.5-2.5,1.9-4.3,4.2-5.5
		c0.3-0.1,0.2-0.2,0.1-0.4c-1.9-3.6-4.6-6.3-8.2-8.2c-2.2-1.2-4.6-1.8-7.2-2c-0.2,0-0.5,0-0.8,0c0.1,0.1,0.2,0.2,0.3,0.3
		c0.9,0.9,1.7,1.7,2.6,2.6c0.5,0.5,0.6,1.2,0.3,1.8c-0.4,0.7-1.4,0.9-2.1,0.4c-0.1-0.1-0.2-0.2-0.3-0.3c-1.7-1.7-3.4-3.4-5.1-5.1
		c-0.8-0.8-0.8-1.5,0-2.3c1.7-1.7,3.5-3.5,5.2-5.2c0.8-0.8,1.9-0.6,2.4,0.3c0.3,0.5,0.1,1.2-0.4,1.7c-0.9,0.9-1.8,1.8-2.6,2.6
		c-0.1,0.1-0.2,0.2-0.3,0.3C34,9.9,34.5,10,35,10c3.3,0.3,6.4,1.4,9.3,3.1c3.6,2.3,6.3,5.3,8.2,9.2c0.1,0.2,0.2,0.4,0.5,0.4
		c1.9,0,3.5,0.7,4.9,2l0.1,0.1c0.1-0.1,0.2-0.2,0.3-0.2c0.4-0.4,0.8-0.8,1.2-1.2c0.7-0.7,1.6-0.8,2.2-0.1c0.6,0.6,0.5,1.4-0.2,2.2
		c-1.2,1.2-2.3,2.3-3.5,3.5c-1.1,1.1-2.1,2.1-3.2,3.2C53.9,33.1,53,33,52.3,32c-0.4-0.6-0.9-1.2-1.3-1.9c-0.5-0.7-0.4-1.6,0.3-2
		c0.6-0.4,1.5-0.3,2,0.4c0.2,0.2,0.3,0.4,0.5,0.7c0.8-0.8,1.5-1.5,2.2-2.2c-0.5-0.5-1.1-0.9-1.8-1.1c-2.5-0.7-5,0.6-5.8,3.1
		c-0.9,2.7,0.9,5.4,3.4,5.9c2.6,0.5,4.8-0.8,5.5-3.4c0.2-0.8,1-1.3,1.7-1.1c0.8,0.2,1.3,0.9,1.1,1.7s-0.5,1.6-0.9,2.2
		c-1.2,1.9-2.9,3-5.1,3.4c-0.1,0-0.3,0.2-0.3,0.3c-1,3.2-2.6,6.1-5,8.6c-2.6,2.8-5.8,4.8-9.5,5.9c-2.1,0.6-4.2,0.9-6.4,0.9
		c-5.8,0-11.7,0-17.5,0c-0.5,0-0.5,0-0.5,0.5c0,0.8,0,1.7,0,2.5c0,1-0.6,1.6-1.6,1.6c-3,0-6,0-9,0c-1,0-1.5-0.6-1.5-1.5c0-3,0-6,0-9
		c0-1,0.6-1.5,1.6-1.5c3,0,5.9,0,8.9,0c1,0,1.6,0.6,1.6,1.6c0,0.9,0,1.8,0,2.7c0,0.3,0.1,0.4,0.3,0.4c6,0,12,0.1,18.1,0
		C41,50.6,47.6,46,50.5,38.9C50.4,38.4,50.6,38,50.7,37.5z M8.7,48.8c-0.9,0-1.9,0-2.8,0c-0.3,0-0.4,0.1-0.4,0.4c0,1.9,0,3.7,0,5.6
		c0,0.3,0.1,0.4,0.4,0.4c1.9,0,3.7,0,5.6,0c0.3,0,0.4-0.1,0.4-0.4c0-1.9,0-3.8,0-5.6c0-0.3-0.1-0.4-0.3-0.4
		C10.5,48.8,9.6,48.8,8.7,48.8z"/>
	<path class="st0" d="M11,31.6c0.2-7,2.9-12.7,8.3-17.1c1.5-1.2,3.1-2.1,4.8-2.9c0.8-0.3,1.6,0,1.9,0.7s0,1.5-0.7,1.9
		c-1.4,0.6-2.7,1.4-4,2.3c-3,2.3-5.2,5.2-6.4,8.7c-1,2.7-1.3,5.6-1,8.5c0.5,4.2,2.2,7.8,5,10.9c0.3,0.3,0.6,0.7,0.7,1.1
		c0.2,0.6-0.1,1.2-0.6,1.5s-1.2,0.3-1.7-0.2s-1.1-1.1-1.5-1.7c-1.8-2.2-3.2-4.7-4-7.5C11.3,35.8,11,33.7,11,31.6z"/>
	<path class="st0" d="M58.3,50.5c-0.1-0.1-0.2-0.2-0.3-0.3c-0.9-0.9-1.7-1.7-2.6-2.6c-0.8-0.8-0.5-2,0.5-2.3c0.6-0.2,1.1,0,1.6,0.4
		c0.9,0.9,1.9,1.9,2.8,2.8c0.8,0.8,1.6,1.6,2.4,2.4c0.8,0.8,0.8,1.5,0,2.3c-1.7,1.7-3.5,3.4-5.2,5.2c-0.3,0.3-0.7,0.6-1.2,0.5
		c-0.6,0-1-0.3-1.2-0.9c-0.2-0.5-0.1-1.1,0.3-1.5c0.6-0.6,1.1-1.1,1.7-1.7c0.4-0.4,0.9-0.9,1.3-1.3v-0.1c-0.1,0-0.3,0-0.4,0
		c-3.1,0-6.2,0-9.3,0c-0.3,0-0.6,0-0.9-0.1c-0.6-0.2-0.9-0.9-0.8-1.6c0.1-0.6,0.6-1.1,1.2-1.1c0.2,0,0.4,0,0.6,0c3,0,6,0,9.1,0
		c0.1,0,0.3,0,0.4,0C58.3,50.5,58.3,50.5,58.3,50.5z"/>
</g>
<g>
	<g>
		<path d="M97.4,44.5h-6.6l12.1-34.3h7.7l12.1,34.3H116l-9.2-27.3h-0.2L97.4,44.5z M97.6,31h18.1v5H97.6V31z"/>
		<path d="M138.2,54.8c-2.2,0-4-0.3-5.6-0.9c-1.6-0.6-2.8-1.3-3.8-2.4c-0.9-1-1.6-2-2-3.3l5.4-1.3c0.2,0.5,0.6,1,1.1,1.5
			s1.1,0.9,1.9,1.3c0.8,0.3,1.8,0.5,3,0.5c1.7,0,3.2-0.4,4.3-1.3c1.1-0.9,1.7-2.2,1.7-4.1v-4.9h-0.3c-0.3,0.6-0.8,1.3-1.3,2
			c-0.6,0.7-1.4,1.2-2.4,1.7s-2.2,0.7-3.7,0.7c-2,0-3.8-0.5-5.4-1.4c-1.6-0.9-2.9-2.4-3.9-4.2c-0.9-1.9-1.4-4.2-1.4-7
			s0.5-5.2,1.4-7.2s2.2-3.5,3.9-4.4c1.6-1,3.4-1.5,5.4-1.5c1.5,0,2.8,0.2,3.7,0.8c0.9,0.5,1.7,1.1,2.4,1.8c0.6,0.7,1,1.4,1.3,2h0.3
			v-4.3h6v26.2c0,2.2-0.6,4-1.6,5.4c-1,1.4-2.5,2.5-4.3,3.2C142.5,54.4,140.5,54.8,138.2,54.8z M138.2,39.4c1.3,0,2.4-0.3,3.3-0.9
			c0.9-0.6,1.6-1.5,2-2.7c0.5-1.2,0.7-2.6,0.7-4.3c0-1.7-0.2-3.1-0.7-4.3c-0.5-1.2-1.2-2.2-2-2.8s-2-1-3.3-1c-1.3,0-2.5,0.3-3.4,1
			s-1.6,1.7-2,2.9s-0.7,2.6-0.7,4.2s0.2,3,0.7,4.2c0.5,1.2,1.2,2.1,2,2.8C135.7,39.1,136.8,39.4,138.2,39.4z"/>
		<path d="M159.5,15.1c-0.9,0-1.8-0.3-2.5-0.9c-0.7-0.6-1-1.4-1-2.4s0.3-1.7,1-2.4c0.7-0.7,1.5-0.9,2.5-0.9c0.9,0,1.8,0.3,2.5,0.9
			c0.7,0.6,1,1.4,1,2.4s-0.3,1.7-1,2.4C161.3,14.7,160.5,15.1,159.5,15.1z M156.5,44.5V18.8h6.1v25.8H156.5z"/>
		<path d="M174.9,10.2v34.3h-6.1V10.2H174.9z"/>
		<path d="M192.5,45.1c-2.6,0-4.8-0.6-6.7-1.7c-1.9-1.1-3.3-2.6-4.3-4.6c-1-2-1.5-4.3-1.5-7s0.5-5,1.5-7c1-2,2.4-3.5,4.3-4.7
			c1.8-1.1,3.9-1.7,6.5-1.7c1.6,0,3.1,0.2,4.5,0.8c1.4,0.5,2.7,1.3,3.8,2.4c1.1,1,2,2.4,2.6,4c0.6,1.7,0.9,3.6,0.9,5.8v1.9h-21.1
			v-4.1h15.3c0-1.2-0.2-2.2-0.8-3.2c-0.5-0.9-1.2-1.7-2-2.1c-0.9-0.6-1.9-0.8-3.1-0.8c-1.3,0-2.4,0.3-3.3,0.9
			c-0.9,0.6-1.7,1.4-2.2,2.4c-0.6,0.9-0.8,2-0.8,3.2v3.5c0,1.5,0.2,2.8,0.8,3.9s1.3,1.9,2.3,2.4c0.9,0.6,2.1,0.9,3.5,0.9
			c0.9,0,1.7-0.2,2.4-0.4c0.7-0.2,1.3-0.6,1.9-1.1s0.9-1.1,1.2-1.8l5.7,0.6c-0.4,1.5-1,2.8-2,3.9c-1,1.1-2.3,2-3.9,2.6
			C196.3,44.8,194.6,45.1,192.5,45.1z"/>
	</g>
</g>
</svg>
