<?xml version="1.0" encoding="utf-8"?>
<!-- Generator: Adobe Illustrator 28.2.0, SVG Export Plug-In . SVG Version: 6.00 Build 0)  -->
<svg version="1.1" id="Layer_1" xmlns="http://www.w3.org/2000/svg" xmlns:xlink="http://www.w3.org/1999/xlink" x="0px" y="0px"
	 viewBox="0 0 225.6 63.6" style="enable-background:new 0 0 225.6 63.6;" xml:space="preserve">
<style type="text/css">
	.st0{stroke:#000000;stroke-width:2;stroke-miterlimit:10;}
</style>
<g>
	<path class="st0" d="M160,48.5c-1.9,0-3.9-0.5-5.6-1.5c-3.5-2-5.6-5.6-5.6-9.7c0-3.5,1.1-6.4,3.3-8.6c1.9-1.9,4.6-3,7.5-3.1h0.1
		c0.2,0,0.4,0,0.5,0c2.2,0,4,0.5,5.6,1.5c0.8,0.5,1,1.6,0.5,2.4s-1.6,1-2.4,0.5c-1-0.6-2.2-1-3.7-1c-0.1,0-0.3,0-0.4,0h-0.1
		c-3.4,0.1-7.4,2.4-7.4,8.2c0,2.9,1.4,5.3,3.8,6.7c2.4,1.4,5.4,1.4,7.8,0c0.8-0.5,1.9-0.2,2.4,0.6s0.2,1.9-0.6,2.4
		C164,48,162,48.5,160,48.5z M134.7,48.5c-1.9,0-3.8-0.5-5.6-1.5c-2.9-1.6-4.9-4.3-5.6-7.4c-0.8-3.3,0.1-7,2.3-9.8
		c2.1-2.6,5.1-4.2,8.2-4.2c0.1,0,0.2,0,0.2,0c0.1,0,0.2,0,0.3,0h0.1c3.9-0.1,7.5,1.9,9.7,5.3c2,3,2.3,6.9,1,10.4
		c-1.3,3.3-3.9,5.7-7.1,6.6C137.1,48.3,135.9,48.5,134.7,48.5z M134.9,29.2c-0.1,0-0.3,0-0.4,0c-0.1,0-0.3,0-0.4,0
		c-2.1,0-4.1,1.1-5.5,2.9c-1.5,2-2.1,4.5-1.6,6.8c0.5,2.1,1.9,4,3.9,5.1s4.3,1.3,6.3,0.6h0.1c2.2-0.6,3.9-2.2,4.8-4.5
		c1-2.5,0.7-5.2-0.6-7.3C140,30.6,137.5,29.2,134.9,29.2L134.9,29.2z M134.7,27.4L134.7,27.4L134.7,27.4z M214.2,48.5
		c-1,0-1.7-0.8-1.7-1.7l-0.1-8.1c0-3.3,0.4-7.1,3.9-9.9c2-1.8,4.7-2.9,7.6-2.9l0,0c1,0,1.7,0.8,1.7,1.7c0,1-0.8,1.8-1.7,1.8
		c-2,0-3.9,0.7-5.2,2c0,0-0.1,0-0.1,0.1c-1.9,1.6-2.7,3.6-2.6,7.3l0.1,8.1C216,47.7,215.2,48.5,214.2,48.5L214.2,48.5z M109.4,48.5
		c-2.5,0-5-0.8-7.1-2.4c-3.2-2.4-4.8-6.2-4.3-10.3c0.5-4.2,3.1-7.7,6.9-9.2c1.1-0.5,2.3-0.7,4-0.8c0.3,0,0.5,0,0.7,0
		c2.8,0,5.5,1.2,7.6,3.2v-8.6c0-1,0.8-1.7,1.7-1.7s1.7,0.8,1.7,1.7V37c0,0.2,0,0.4,0,0.6l0,0c0,1.6-0.4,3.1-1,4.6
		c-1.4,3.1-4,5.3-7.3,6.2C111.4,48.4,110.4,48.5,109.4,48.5z M109.6,29.2c-0.2,0-0.3,0-0.5,0c-1.2,0.1-2.1,0.2-2.9,0.5
		c-2.6,1.1-4.4,3.5-4.8,6.4c-0.4,2.8,0.7,5.5,2.9,7.1c2.1,1.5,4.7,2.1,7.1,1.4c2.3-0.6,4-2.1,5-4.2c0.4-1,0.7-2.1,0.7-3.2v-0.5
		c0-1.5-0.5-3-1.4-4.3C114.3,30.5,112,29.2,109.6,29.2z M182.7,48.5c-0.4,0-0.9-0.2-1.2-0.5l-6.6-6.5v5.3c0,1-0.8,1.7-1.7,1.8l0,0
		c-1,0-1.7-0.8-1.7-1.7l-0.1-26.4c0-1,0.8-1.8,1.7-1.8l0,0c1,0,1.7,0.8,1.7,1.7v12.7l6.5-6.6c0.7-0.7,1.8-0.7,2.5,0s0.7,1.8,0,2.5
		l-8.3,8.4l8.3,8.3c0.7,0.7,0.7,1.8,0,2.5C183.6,48.3,183.1,48.5,182.7,48.5z M198.6,48.5c-1.6,0-3.3-0.3-4.8-0.9
		c-1.1-0.5-2-1-2.6-1.6l0,0c-3.9-3.7-5.2-8.6-3.4-13.1c1.7-4.3,5.9-7.2,10.4-7.2c3.8,0,7.3,1.7,9.5,4.6c0.3,0.4,0.6,1,0.7,1.2
		c0.4,0.7,0.2,1.6-0.4,2.1l-11.2,9.6l6.6,0.5c0.7,0.1,1.4,0.6,1.6,1.3c0.2,0.7-0.1,1.5-0.6,1.9C202.8,47.9,200.7,48.5,198.6,48.5z
		 M198.1,29.1c-3.1,0-6,2-7.2,5c-1.1,2.7-0.5,5.6,1.5,8.1l12-10.3C202.9,30.1,200.7,29.1,198.1,29.1z"/>
</g>
<g>
	<path d="M52.6,25.5h8.8 M42.1,25.5h8.8 M31.9,25.5h8.8 M21.7,25.5h8.6 M11.2,25.5H20 M21.7,15.9h8.6 M31.9,15.9h8.8 M42.1,15.9h8.8
		 M42.1,6.3h8.8"/>
	<path d="M61.4,29.5h-8.8v-7.9h8.8V29.5z M50.9,29.5h-8.8v-7.9h8.8V29.5z M40.7,29.5h-8.8v-7.9h8.8V29.5z M30.2,29.5h-8.6v-7.9h8.6
		V29.5z M20,29.5h-8.8v-7.9H20V29.5z M50.9,19.9h-8.8V12h8.8V19.9z M40.7,19.9h-8.8V12h8.8V19.9z M30.2,19.9h-8.6V12h8.6V19.9z
		 M50.9,10.3h-8.8V2.4h8.8V10.3z"/>
</g>
<g>
	<path d="M89.3,26c0,0-3.8-3.6-11.5-2.3C77,17.6,70.6,14,70.6,14s-6.1,7.3-1.7,15.5c-1.3,0.6-3.3,1.5-6.5,1.5H5
		c-1,4-1,30.3,27.8,30.3c20.7,0,36.1-9.6,43.4-27.1C87,34.9,89.3,26,89.3,26"/>
</g>
</svg>
