<?xml version="1.0" encoding="utf-8"?>
<!-- Generator: Adobe Illustrator 28.2.0, SVG Export Plug-In . SVG Version: 6.00 Build 0)  -->
<svg version="1.1" id="Layer_1" xmlns="http://www.w3.org/2000/svg" xmlns:xlink="http://www.w3.org/1999/xlink" x="0px" y="0px"
	 viewBox="0 0 225.6 63.6" style="enable-background:new 0 0 225.6 63.6;" xml:space="preserve">
<style type="text/css">
	.st0{fill:#100F0D;}
	.st1{clip-path:url(#SVGID_00000008840576877822505980000014298535885904726963_);}
	.st2{clip-path:url(#SVGID_00000142870293952211442380000012802136432619798914_);}
	.st3{clip-path:url(#SVGID_00000178167541649639137930000009299920451457875862_);}
</style>
<path class="st0" d="M128.1,21.8c-3.3,0-5.8,1.6-5.8,5.6c0,3,1.6,5,5.6,5c3.4,0,5.7-2,5.7-5.1C133.6,23.7,131.6,21.8,128.1,21.8z
	 M121.5,49.6c-0.8,1-1.6,2-1.6,3.2c0,2.4,3.1,3.1,7.3,3.1c3.5,0,8.3-0.2,8.3-3.5c0-1.9-2.3-2.1-5.2-2.2L121.5,49.6z M139.4,22
	c1.1,1.4,2.2,3.3,2.2,6.1c0,6.7-5.3,10.6-12.9,10.6c-1.9,0-3.7-0.2-4.8-0.5l-2,3.2l5.9,0.4c10.4,0.7,16.6,1,16.6,9
	c0,6.9-6.1,10.9-16.6,10.9c-10.9,0-15.1-2.8-15.1-7.5c0-2.7,1.2-4.2,3.3-6.2c-2-0.8-2.7-2.3-2.7-4c0-1.3,0.7-2.5,1.8-3.7
	c1.1-1.1,2.3-2.3,3.7-3.6c-3-1.4-5.2-4.6-5.2-9.1c0-6.9,4.6-11.7,13.8-11.7c2.6,0,4.2,0.2,5.6,0.6h11.8v5.1L139.4,22"/>
<g>
	<defs>
		<rect id="SVGID_1_" x="147.7" y="0.3" width="17.3" height="47.3"/>
	</defs>
	<clipPath id="SVGID_00000147210638309189405320000015963203581263724200_">
		<use xlink:href="#SVGID_1_"  style="overflow:visible;"/>
	</clipPath>
	<g style="clip-path:url(#SVGID_00000147210638309189405320000015963203581263724200_);">
		<path class="st0" d="M155.6,11c-3.4,0-5.4-2-5.4-5.4c0-3.4,2-5.3,5.4-5.3c3.5,0,5.5,1.9,5.5,5.3C161,9.1,159.1,11,155.6,11z
			 M147.8,47.3v-4.8l3.1-0.4c0.8-0.1,1-0.3,1-1.2V23.2c0-0.7-0.2-1.1-0.8-1.3l-3.3-1.1l0.7-4.9h12.5v25.1c0,1,0.1,1.1,1,1.2l3.1,0.4
			v4.8L147.8,47.3"/>
	</g>
</g>
<g>
	<defs>
		<rect id="SVGID_00000077301448729764337090000008372724376454856359_" x="164.3" y="6" width="24.5" height="41.6"/>
	</defs>
	<clipPath id="SVGID_00000016052329869458024980000007574425660536974780_">
		<use xlink:href="#SVGID_00000077301448729764337090000008372724376454856359_"  style="overflow:visible;"/>
	</clipPath>
	<g style="clip-path:url(#SVGID_00000016052329869458024980000007574425660536974780_);">
		<path class="st0" d="M188.8,45c-2.6,1.3-6.4,2.4-9.8,2.4c-7.2,0-9.9-2.9-9.9-9.7V21.9c0-0.4,0-0.6-0.5-0.6h-4.2v-5.4
			c5.3-0.6,7.4-3.3,8.1-9.8h5.7v8.6c0,0.4,0,0.6,0.5,0.6h8.5v6h-9v14.4c0,3.6,0.8,5,4.1,5c1.7,0,3.4-0.4,4.9-1L188.8,45"/>
	</g>
</g>
<g>
	<defs>
		<rect id="SVGID_00000121977480964186709030000005708738447849936565_" x="37.4" y="0.3" width="63.8" height="63.3"/>
	</defs>
	<clipPath id="SVGID_00000050657846139577704390000013181264618659305610_">
		<use xlink:href="#SVGID_00000121977480964186709030000005708738447849936565_"  style="overflow:visible;"/>
	</clipPath>
	<g style="clip-path:url(#SVGID_00000050657846139577704390000013181264618659305610_);">
		<path class="st0" d="M99.4,29.1L71.8,1.5C70.2,0,67.6,0,66,1.5c0,0,0,0,0,0l-5.7,5.7l7.3,7.3c1.7-0.6,3.7-0.1,5,1.2
			c1.3,1.3,1.8,3.3,1.1,5l7,7c1.8-0.6,3.7-0.2,5,1.1c1.9,1.9,1.9,5,0,6.8c0,0,0,0,0,0c-1.9,1.9-5,1.9-6.8,0c0,0,0,0,0,0
			c-1.4-1.4-1.8-3.5-1.1-5.3l-6.5-6.5v17.2c0.5,0.2,0.9,0.5,1.3,0.9c1.9,1.9,1.9,5,0,6.9c-1.9,1.9-5,1.9-6.9,0c-1.9-1.9-1.9-5,0-6.8
			c0,0,0,0,0,0c0.5-0.5,1-0.8,1.6-1.1V23.6c-0.6-0.2-1.1-0.6-1.6-1.1c-1.4-1.4-1.8-3.5-1-5.3l-7.2-7.2L38.6,29
			c-1.6,1.6-1.6,4.2,0,5.8c0,0,0,0,0,0l27.6,27.6c1.6,1.6,4.2,1.6,5.8,0c0,0,0,0,0,0l27.5-27.5C101,33.3,101,30.7,99.4,29.1"/>
	</g>
</g>
</svg>
