<?xml version="1.0" encoding="utf-8"?>
<!-- Generator: Adobe Illustrator 28.2.0, SVG Export Plug-In . SVG Version: 6.00 Build 0)  -->
<svg version="1.1" id="Layer_1" xmlns="http://www.w3.org/2000/svg" xmlns:xlink="http://www.w3.org/1999/xlink" x="0px" y="0px"
	 viewBox="0 0 225.6 64" style="enable-background:new 0 0 225.6 64;" xml:space="preserve">
<style type="text/css">
	.st0{fill-rule:evenodd;clip-rule:evenodd;fill:url(#SVGID_1_);}
	.st1{fill-rule:evenodd;clip-rule:evenodd;fill:url(#SVGID_00000096753501879879191590000016931114138890982057_);}
	.st2{fill:url(#SVGID_00000012444644704384958880000004365700611823641991_);}
	.st3{fill:url(#SVGID_00000093178669078232714520000012696737709090704288_);}
	.st4{fill:url(#SVGID_00000114034302078079659710000009150316114721841577_);}
	.st5{fill-rule:evenodd;clip-rule:evenodd;fill:#E68C3F;}
	.st6{fill:url(#SVGID_00000153691443130708428610000014494278847173970075_);}
	.st7{fill:url(#SVGID_00000095327980133645363370000012201313033683958184_);}
</style>
<g>
	<path d="M16.3,48.9c-0.4-0.5-0.7-1.3-0.9-2.1c-4.6-5.2-1-12.8,2.5-18c0.3-0.6,0.7-1.1,1.1-1.6c2.7-3.3,3.4-5.7,3.6-8.8
		c0-0.6,0-1.4-0.1-2.2c-0.3-4.5-0.8-12.1,7.3-12.7C39.9,2.7,39.1,12,39,17.4c0,0.2,0,0.4,0,0.7c0,3.3,1.7,5.5,3.5,7.9
		c0.7,0.9,1.3,1.7,1.9,2.7c0,0,0,0.1,0.1,0.1c3.1,4.5,6.2,11.2,1.9,17.6c-0.6,2.2-1.5,4.2-2.7,5.8c-4.4,5.8-8.3,5.2-11.3,4.7
		c-0.9-0.1-1.8-0.3-2.5-0.2c-1.2,0.1-2.2,0.3-3.1,0.5C23.3,57.7,22,57.9,16.3,48.9z"/>
	
		<linearGradient id="SVGID_1_" gradientUnits="userSpaceOnUse" x1="-43.9034" y1="16.1271" x2="-44.0919" y2="15.5086" gradientTransform="matrix(25 0 0 25 1131.3041 -356)">
		<stop  offset="0" style="stop-color:#FFEED7"/>
		<stop  offset="1" style="stop-color:#BDBFC2"/>
	</linearGradient>
	<path class="st0" d="M29.4,15c0,1.5,0.7,2.7,1.6,3.2c-3-0.3-6.8,0.8-6.8,2.9c0,3.6-2,8-3.5,11.2c-0.3,0.6-0.5,1.2-0.8,1.7
		c-0.9,2.2-1.4,4.5-1.5,6.8c-2.3-3.2-0.6-7.4,0.3-9.2c1.2-2.4,1.2-2.7,0.7-2.1c-1.8,3.1-5.2,9.3-1,13c0.1,1.7,0.5,3.3,1.3,4.8
		c5.7,11.6,16.5,6.8,20,0.8c0.5-0.9,0.9-1.7,1.2-2.5c0.2,0.1,0.4,0.2,0.6,0.3c1.8,0.5,4.4-1.5,5.1-2.7c0.8-1.7,0-2.8-2.6-4.1
		c-0.1-0.1-0.3-0.1-0.4-0.2c1-4.2-1.8-8.6-3.7-10.5c-0.4-0.1-0.4,0.1,0.2,0.7c1.2,1.2,4,5.5,2.5,9.4c-0.2-0.1-0.5-0.1-0.7-0.1
		c-0.5-2.7-1.7-4.8-2.5-6.3c-0.2-0.3-0.4-0.6-0.5-0.9c-0.3-0.5-0.6-1.1-1-1.7c-1.4-2.3-3.1-5.1-3.1-9.2c-0.2-0.9-1.1-1.5-2.2-1.9
		c1.3-0.3,2.3-1.8,2.3-3.7c0-2-1.3-3.6-2.8-3.6C30.5,11.3,29.3,13,29.4,15z M30.6,15.4c0,1.1,0.5,2,1.2,2c0.7,0,1.3-0.9,1.3-2
		s-0.5-2-1.2-2C31.2,13.5,30.6,14.4,30.6,15.4z"/>
	
		<linearGradient id="SVGID_00000012443917743595336810000009163487410046037938_" gradientUnits="userSpaceOnUse" x1="-43.8468" y1="16.1099" x2="-44.0353" y2="15.4914" gradientTransform="matrix(25 0 0 25 1131.3041 -356)">
		<stop  offset="0" style="stop-color:#FFEED7"/>
		<stop  offset="1" style="stop-color:#BDBFC2"/>
	</linearGradient>
	<path style="fill-rule:evenodd;clip-rule:evenodd;fill:url(#SVGID_00000012443917743595336810000009163487410046037938_);" d="
		M25.6,18.1c1.1-0.1,1.9-1.5,1.8-3.3c-0.1-1.7-1.1-3.1-2.1-3c-1.1,0.1-1.9,1.5-1.8,3.3C23.6,16.8,24.5,18.2,25.6,18.1z M26.3,15.5
		c0.1,0.9-0.2,1.7-0.7,1.8c-0.5,0.1-1-0.6-1.1-1.5s0.2-1.7,0.7-1.8C25.7,13.9,26.2,14.5,26.3,15.5z"/>
	
		<linearGradient id="SVGID_00000021100898594349796240000004150964908398774667_" gradientUnits="userSpaceOnUse" x1="-43.9827" y1="14.7938" x2="-43.9934" y2="14.8738" gradientTransform="matrix(25 0 0 25 1131.3041 -356)">
		<stop  offset="0" style="stop-color:#FFFFFF;stop-opacity:0.65"/>
		<stop  offset="1" style="stop-color:#FFFFFF;stop-opacity:0"/>
	</linearGradient>
	<path style="fill:url(#SVGID_00000021100898594349796240000004150964908398774667_);" d="M30.9,14.8c-0.1,0.6,0.2,1.1,0.6,1.2
		c0.4,0,0.8-0.4,0.8-1.1c0.1-0.6-0.2-1.1-0.6-1.2C31.3,13.7,30.9,14.2,30.9,14.8z"/>
	
		<linearGradient id="SVGID_00000168822260341607329510000000051025509964549299_" gradientUnits="userSpaceOnUse" x1="-44.248" y1="14.809" x2="-44.2365" y2="14.8737" gradientTransform="matrix(25 0 0 25 1131.3041 -356)">
		<stop  offset="0" style="stop-color:#FFFFFF;stop-opacity:0.65"/>
		<stop  offset="1" style="stop-color:#FFFFFF;stop-opacity:0"/>
	</linearGradient>
	<path style="fill:url(#SVGID_00000168822260341607329510000000051025509964549299_);" d="M25.8,15c0.1,0.5-0.2,1-0.5,1
		s-0.6-0.4-0.6-0.9c-0.1-0.5,0.2-1,0.5-1C25.5,14.1,25.8,14.5,25.8,15z"/>
	
		<linearGradient id="SVGID_00000138560659446508381900000014921912464504254080_" gradientUnits="userSpaceOnUse" x1="-44.5833" y1="16.2579" x2="-44.6856" y2="16.5996" gradientTransform="matrix(25 0 0 25 1131.3041 -356)">
		<stop  offset="0" style="stop-color:#FFA63F"/>
		<stop  offset="1" style="stop-color:#FFFF00"/>
	</linearGradient>
	<path style="fill:url(#SVGID_00000138560659446508381900000014921912464504254080_);" d="M16,58.1c-4.2-2.3-10.3,0.4-8.1-5.8
		c0.5-1.4-0.7-3.6,0.1-4.9c0.8-1.7,2.7-1.3,3.8-2.5s1.7-3.2,3.8-2.9c2,0.3,3.3,2.8,4.7,6c1,2.2,4.7,5.4,4.4,7.9
		C24.3,59.6,20.1,60.3,16,58.1z"/>
	<path class="st5" d="M12.2,45.3c-1,1.1-2.9,0.8-3.7,2.3C8,48.5,8.5,50,8.6,51c0.1,1.3-1,3.1-0.4,4.2c0.6,1.2,3.3,1.1,4.5,1.2
		c3,0.4,7.8,4.3,10.5,1.2c2.6-3-2.4-6.8-3.6-9.4c-0.8-1.8-2-5.2-4.2-5.6C13.8,42.4,13.1,44.3,12.2,45.3z M15.6,41.3
		c2.8,0.4,4.2,4,5.2,6.3c1.6,3.3,6.9,6.9,3.4,10.9c-3.1,3.6-8.1-0.3-11.6-0.8c-1.8-0.3-4.6-0.1-5.5-1.9c-0.8-1.6,0.4-3.1,0.3-4.7
		c-0.1-1.4-0.6-2.8,0-4.1c0.9-1.8,2.7-1.4,3.9-2.6C12.6,43,13.3,40.9,15.6,41.3z"/>
	
		<linearGradient id="SVGID_00000031891686420481671730000001120651563045951874_" gradientUnits="userSpaceOnUse" x1="-43.6277" y1="16.0676" x2="-43.3547" y2="16.4398" gradientTransform="matrix(25 0 0 25 1131.3041 -356)">
		<stop  offset="4.728603e-02" style="stop-color:#FFA63F"/>
		<stop  offset="1" style="stop-color:#FFFF00"/>
	</linearGradient>
	<path style="fill:url(#SVGID_00000031891686420481671730000001120651563045951874_);" d="M45.3,54.5c3.1-3.9,9.9-3.1,5.3-8.4
		c-1-1.1-0.7-3.6-1.9-4.7c-1.4-1.3-3-0.2-4.4-0.9s-2.9-2.1-4.7-1.1c-1.7,1-1.9,3.6-2.1,7c-0.2,2.4-2.3,6.5-1.1,8.7
		C38.1,58.6,42.4,58.1,45.3,54.5z"/>
	<path class="st5" d="M46.6,40.1c0.8,0,1.7,0,2.6,0.8c1.1,1,1.1,2.6,1.5,3.9c0.5,1.6,2.2,2.5,2.1,4.3c-0.2,3-5.4,3.7-7,5.8
		c-1.5,1.9-3.5,3.1-5.4,3.2c-2.8,0.2-5.1-2.1-5-5c0.1-2.3,1.3-4.5,1.5-6.8c0.1-1.7,0.2-3.2,0.5-4.5s0.9-2.4,2-3
		C41.8,37.5,44.1,40.1,46.6,40.1z M40,40c-0.6,0.4-1.1,1.1-1.3,2.2c-0.3,1.1-0.4,2.5-0.4,4.3c-0.1,2.3-1.3,4.4-1.5,6.8
		c-0.1,2.1,1.5,3.8,3.6,3.6c1.4-0.1,3.1-1,4.5-2.7c1.2-1.6,6.6-3,6.7-5c0.1-1.3-1.7-2.5-2.1-3.8c-0.3-1-0.3-2.6-1.1-3.3
		c-0.5-0.5-1.1-0.5-1.8-0.5C44.6,41.5,41.9,38.9,40,40z"/>
	
		<linearGradient id="SVGID_00000087400741755998305940000003312995651587436218_" gradientUnits="userSpaceOnUse" x1="-44.0881" y1="14.9225" x2="-44.0862" y2="15.1889" gradientTransform="matrix(25 0 0 25 1131.3041 -356)">
		<stop  offset="0" style="stop-color:#FFA63F"/>
		<stop  offset="1" style="stop-color:#FFFF00"/>
	</linearGradient>
	<path style="fill:url(#SVGID_00000087400741755998305940000003312995651587436218_);" d="M25.3,17.3c0.8-0.7,2.6-2.9,6-0.6
		c0.6,0.4,1.2,0.5,2.4,1c2.5,1.1,1.3,3.6-1.3,4.4c-1.1,0.4-2.1,1.8-4.2,1.7c-1.7-0.1-2.2-1.3-3.3-1.9c-1.9-1.1-2.2-2.6-1.1-3.4
		C24.8,17.6,25.2,17.3,25.3,17.3z"/>
	<path class="st5" d="M24,18.7c-0.4,0.3-0.5,0.7-0.4,1.2c0.3,0.9,2.2,2.2,2.9,2.8c0.4,0.4,0.9,0.6,1.7,0.7c1.7,0.1,2.6-1.2,4-1.6
		c1-0.3,3-1.5,2.3-2.9C34,17.7,32,17.6,31.1,17c-1.6-1.1-2.8-1.1-3.7-0.8C26.5,16.5,24.8,18.1,24,18.7z M27.1,15.5
		c1.1-0.4,2.5-0.3,4.4,0.9c1.2,0.8,3,0.7,3.7,2.2c0.9,1.9-1.3,3.5-2.8,4c-1.6,0.5-2.4,1.8-4.3,1.7c-1-0.1-1.6-0.4-2.1-0.8
		c-1.1-0.9-2.8-1.7-3.3-3.1c-0.2-0.8,0.1-1.6,0.7-2.1C24.6,17.3,26,15.9,27.1,15.5z"/>
	<path class="st5" d="M34,19.3c0,0.1-0.1,0.3-0.2,0.3c-2,0.1-3.4,2.4-5.6,2.4c-1.3,0-2.2-0.6-3-1.2c-0.1-0.1-1.4-1.1-1.4-1.3
		c0-0.1,0.1-0.3,0.3-0.3c0.3,0,1.1,0.9,1.4,1.1c0.7,0.5,1.7,1.2,2.8,1.2c2.2,0,3.6-2.3,5.6-2.4C33.8,19,34,19.2,34,19.3z"/>
</g>
<g>
	<g>
		<path d="M72.7,50.5V15.6H79v29.6h15.4v5.3H72.7z"/>
		<path d="M102.7,20.6c-1,0-1.8-0.3-2.5-1s-1.1-1.4-1.1-2.4s0.4-1.7,1.1-2.4s1.5-1,2.5-1s1.8,0.3,2.5,1s1,1.4,1,2.4s-0.3,1.7-1,2.4
			C104.6,20.3,103.7,20.6,102.7,20.6z M99.6,50.5V24.3h6.2v26.2H99.6z"/>
		<path d="M118.3,35.2v15.3h-6.2V24.3h5.9v4.4h0.3c0.6-1.5,1.6-2.6,2.9-3.5s3-1.3,4.9-1.3c1.8,0,3.4,0.4,4.7,1.2
			c1.3,0.8,2.4,1.9,3.1,3.4c0.7,1.5,1.1,3.2,1.1,5.3v16.7h-6V34.8c0-1.8-0.5-3.1-1.4-4.1s-2.2-1.5-3.7-1.5c-1.1,0-2,0.2-2.9,0.7
			c-0.8,0.5-1.5,1.2-2,2C118.6,32.8,118.3,33.9,118.3,35.2z"/>
		<path d="M158.1,39.5V24.3h6.2v26.2h-6v-4.7H158c-0.6,1.5-1.6,2.7-2.9,3.6s-3,1.4-5,1.4c-1.7,0-3.2-0.4-4.5-1.2s-2.3-1.9-3.1-3.4
			s-1.1-3.3-1.1-5.3V24.3h6.2V40c0,1.7,0.5,3,1.4,4s2.1,1.5,3.6,1.5c0.9,0,1.8-0.2,2.6-0.7c0.9-0.4,1.6-1.1,2.1-2
			C157.8,41.9,158.1,40.8,158.1,39.5z"/>
		<path d="M175.7,24.3L181,34l5.4-9.7h6.5L185,37.4l8,13.1h-6.5l-5.5-9.4l-5.5,9.4H169l8-13.1l-7.8-13.1
			C169.2,24.3,175.7,24.3,175.7,24.3z"/>
	</g>
</g>
</svg>
