<?xml version="1.0" encoding="utf-8"?>
<!-- Generator: Adobe Illustrator 28.2.0, SVG Export Plug-In . SVG Version: 6.00 Build 0)  -->
<svg version="1.1" id="Layer_1" xmlns="http://www.w3.org/2000/svg" xmlns:xlink="http://www.w3.org/1999/xlink" x="0px" y="0px"
	 viewBox="0 0 225.6 63.6" style="enable-background:new 0 0 225.6 63.6;" xml:space="preserve">
<style type="text/css">
	.st0{fill-rule:evenodd;clip-rule:evenodd;}
</style>
<g>
	<path class="st0" d="M35.7,34c0-0.7-0.4-1.3-1-1.7l-15.9-9.2c-0.3-0.2-0.6-0.2-0.9-0.3h-0.2c-0.3,0-0.6,0.1-0.9,0.3L1,32.3
		c-0.6,0.3-1,1-1,1.7l0,24.7c0,0.3,0.2,0.7,0.5,0.8c0.3,0.2,0.7,0.2,1,0l9.5-5.4c0.6-0.4,1-1,1-1.7V40.9c0-0.7,0.4-1.3,1-1.7l4-2.3
		c0.3-0.2,0.6-0.3,1-0.3c0.3,0,0.7,0.1,1,0.3l4,2.3c0.6,0.3,1,1,1,1.7v11.5c0,0.7,0.4,1.3,1,1.7l9.5,5.4c0.3,0.2,0.7,0.2,1,0
		c0.3-0.2,0.5-0.5,0.5-0.8L35.7,34z M110.7,46.9c0,0.2-0.1,0.3-0.2,0.4l-5.5,3.2c-0.1,0.1-0.3,0.1-0.5,0l-5.5-3.2
		c-0.2-0.1-0.2-0.2-0.2-0.4v-6.3c0-0.2,0.1-0.3,0.2-0.4l5.5-3.2c0.2-0.1,0.3-0.1,0.5,0l5.5,3.2c0.2,0.1,0.2,0.2,0.2,0.4L110.7,46.9z
		 M112.2,0.1c-0.3-0.2-0.7-0.2-1,0c-0.3,0.2-0.5,0.5-0.5,0.8v24.4c0,0.2-0.1,0.5-0.3,0.6c-0.2,0.1-0.5,0.1-0.7,0l-4-2.3
		c-0.6-0.3-1.3-0.3-1.9,0L88,32.9c-0.6,0.3-1,1-1,1.7v18.4c0,0.7,0.4,1.3,1,1.7l15.9,9.2c0.6,0.3,1.3,0.3,1.9,0l15.9-9.2
		c0.6-0.3,1-1,1-1.7V7.1c0-0.7-0.4-1.3-1-1.7L112.2,0.1z M165.2,40.4c0.6-0.3,1-1,1-1.7v-4.5c0-0.7-0.4-1.3-1-1.7l-15.8-9.2
		c-0.6-0.3-1.3-0.3-1.9,0l-15.9,9.2c-0.6,0.3-1,1-1,1.7v18.4c0,0.7,0.4,1.3,1,1.7l15.8,9c0.6,0.3,1.3,0.3,1.9,0l9.6-5.3
		c0.3-0.2,0.5-0.5,0.5-0.8s-0.2-0.7-0.5-0.8l-16-9.2c-0.3-0.2-0.5-0.5-0.5-0.8v-5.8c0-0.3,0.2-0.7,0.5-0.8l5-2.9
		c0.3-0.2,0.7-0.2,1,0l5,2.9c0.3,0.2,0.5,0.5,0.5,0.8v4.5c0,0.3,0.2,0.7,0.5,0.8c0.3,0.2,0.7,0.2,1,0L165.2,40.4z"/>
	<path class="st0" d="M148.2,39.5c0.1-0.1,0.3-0.1,0.4,0l3.1,1.8c0.1,0.1,0.2,0.2,0.2,0.3v3.5c0,0.1-0.1,0.3-0.2,0.3l-3.1,1.8
		c-0.1,0.1-0.3,0.1-0.4,0l-3.1-1.8c-0.1-0.1-0.2-0.2-0.2-0.3v-3.5c0-0.1,0.1-0.3,0.2-0.3L148.2,39.5z"/>
	<g>
		<defs>
			<path id="SVGID_1_" d="M60.4,23.5l-15.8,9.1c-0.6,0.3-1,1-1,1.7v18.3c0,0.7,0.4,1.3,1,1.7l15.8,9.1c0.6,0.3,1.3,0.3,1.9,0
				l15.8-9.1c0.6-0.3,1-1,1-1.7V34.3c0-0.7-0.4-1.3-1-1.7l-15.8-9.1c-0.3-0.2-0.6-0.3-1-0.3S60.7,23.3,60.4,23.5"/>
		</defs>
		<use xlink:href="#SVGID_1_"  style="overflow:visible;"/>
		<clipPath id="SVGID_00000157268868424459420880000007751372548691645322_">
			<use xlink:href="#SVGID_1_"  style="overflow:visible;"/>
		</clipPath>
	</g>
</g>
<g>
	<path d="M200.3,63.6c-0.8,0-1.5-0.2-2.2-0.6l-6.9-4.1c-1-0.6-0.5-0.8-0.2-0.9c1.4-0.5,1.7-0.6,3.1-1.4c0.2-0.1,0.4-0.1,0.5,0
		l5.3,3.1c0.2,0.1,0.5,0.1,0.6,0l20.7-11.9c0.2-0.1,0.3-0.3,0.3-0.6V23.4c0-0.2-0.1-0.5-0.3-0.6l-20.7-11.9c-0.2-0.1-0.4-0.1-0.6,0
		l-20.7,11.9c-0.2,0.1-0.3,0.3-0.3,0.6v23.9c0,0.2,0.1,0.4,0.3,0.6l5.7,3.3c3.1,1.5,5-0.3,5-2.1V25.4c0-0.3,0.3-0.6,0.6-0.6h2.6
		c0.3,0,0.6,0.3,0.6,0.6V49c0,4.1-2.2,6.5-6.1,6.5c-1.2,0-2.1,0-4.8-1.3l-5.4-3.1c-1.3-0.8-2.2-2.2-2.2-3.8V23.4
		c0-1.6,0.8-3,2.2-3.8l20.7-11.9c1.3-0.7,3-0.7,4.3,0l20.7,11.9c1.3,0.8,2.2,2.2,2.2,3.8v23.9c0,1.5-0.8,3-2.2,3.8L202.5,63
		C201.8,63.4,201.1,63.6,200.3,63.6"/>
	<path d="M206.7,47.1c-9,0-10.9-4.2-10.9-7.6c0-0.3,0.3-0.6,0.6-0.6h2.7c0.3,0,0.5,0.2,0.6,0.5c0.4,2.7,1.6,4.1,7.1,4.1
		c4.4,0,6.2-1,6.2-3.3c0-1.3-0.5-2.3-7.3-3c-5.7-0.6-9.2-1.8-9.2-6.3c0-4.2,3.5-6.7,9.4-6.7c6.6,0,9.9,2.3,10.3,7.2
		c0,0.2,0,0.3-0.2,0.5c-0.1,0.1-0.3,0.2-0.4,0.2h-2.7c-0.3,0-0.5-0.2-0.6-0.5c-0.6-2.9-2.2-3.8-6.5-3.8c-4.8,0-5.3,1.7-5.3,2.9
		c0,1.5,0.7,1.9,7.1,2.8c6.4,0.8,9.4,2,9.4,6.5C217,44.6,213.2,47.2,206.7,47.1"/>
</g>
</svg>
